<svg xmlns="http://www.w3.org/2000/svg" viewBox="0 0 330.44 146.18"><defs><style>.cls-1{font-size:96.49px;font-family:FreestyleScript-Regular, Freestyle Script;}.cls-1,.cls-2{fill:#fff;}</style></defs><g id="Capa_2" data-name="Capa 2"><g id="Capa_2-2" data-name="Capa 2"><text class="cls-1" transform="matrix(1, -0.08, 0.09, 1.15, 97.7, 109.99)">Pictures.</text><path class="cls-2" d="M95.19,96.21a1.82,1.82,0,0,0-.15-.15,1.3,1.3,0,0,0-.19-.13.9.9,0,0,0-.21-.12,1.66,1.66,0,0,0-.91-.13,1.94,1.94,0,0,0-.64.14l-.06,0,0,0-.1.06-.09,0-.69.38a4.53,4.53,0,0,1-.67.17c-.14,0-.28,0-.72.07l-.83.06a10.18,10.18,0,0,1-1.35,0,13.17,13.17,0,0,1-1.62-.29,13.92,13.92,0,0,1-3.86-1.57,11.15,11.15,0,0,1-4.25-6.2A14.85,14.85,0,0,1,78.05,84c0-13.64,0-20.47.06-27.06.19-11.12-4.42-25.41-15-33.9a39.5,39.5,0,0,0-24-8.52,40,40,0,0,0-25.6,9.77C.28,35.9.18,52.07.21,54.54.14,58.42-.1,72.28.05,84.38a35,35,0,0,0,.77,7.45A37.85,37.85,0,0,0,6.2,104.34c10.91,16.89,36.26,17.3,41.14,17.29,4.61,0,11.28.36,19.52-2.16A62.35,62.35,0,0,0,94.53,99.88l.26-.36c.09-.12.16-.24.23-.34s.12-.22.19-.37a4.35,4.35,0,0,0,.18-.63A3,3,0,0,0,95.19,96.21ZM19.79,71.15c-4.76,0-8.62-6.09-8.62-13.6S15,44,19.79,44s8.62,6.09,8.62,13.6S24.55,71.15,19.79,71.15Zm28,0c-4.76,0-8.62-6.09-8.62-13.6S43,44,47.77,44s8.62,6.09,8.62,13.6S52.53,71.15,47.77,71.15Z"/></g></g></svg>