<svg xmlns="http://www.w3.org/2000/svg" viewBox="0 0 311.27 107.14"><defs><style>.cls-1{fill:#fff;}</style></defs><g id="Capa_2" data-name="Capa 2"><g id="Capa_2-2" data-name="Capa 2"><path class="cls-1" d="M111.19,64.22l-.53,1.67q-4,12-5.24,17.14-1.94,8-2.16,9.3c-.47,2.47-1.23,3.74-2.3,3.82a2.32,2.32,0,0,1-2-1A3.81,3.81,0,0,1,98.07,93q-.36-4.64,8.09-30.14A4.5,4.5,0,0,1,104,59.72a3,3,0,0,1,.77-2.23,2.52,2.52,0,0,1,1.68-.9,5.66,5.66,0,0,1,1.77.25q6.34-17.34,7.31-22c-.74.57-1.69,1.37-2.84,2.4a3.31,3.31,0,0,1-1.77.9,1.68,1.68,0,0,1-1.54-.92,3,3,0,0,1-.48-1.42q-.21-2.55,3.38-5.76a60.8,60.8,0,0,1,5.38-4.33,16.76,16.76,0,0,0,.37-1.82,8.16,8.16,0,0,1,.78-2.83,1.84,1.84,0,0,1,1.54-.83c1.47-.11,2.28.76,2.42,2.64a56.73,56.73,0,0,1,5.61-2.07,20.41,20.41,0,0,1,4.18-.87,9.55,9.55,0,0,1,8,3.4,13.5,13.5,0,0,1,3.62,8.25q.63,8.16-4.65,16.77A36,36,0,0,1,127.83,60.1a28.52,28.52,0,0,1-12.71,4.3A20.11,20.11,0,0,1,111.19,64.22Zm10.59-34a134.39,134.39,0,0,1-4,14.12q-3.52,10.49-4.56,13.72a21,21,0,0,0,3.66.26q5.35-.42,12.11-5.94a35.22,35.22,0,0,0,9.87-12.89,16.75,16.75,0,0,0,1.79-8,5.75,5.75,0,0,0-2.17-4.48A8.27,8.27,0,0,0,132.88,26a19.55,19.55,0,0,0-5.55,1.27A25.69,25.69,0,0,0,121.78,30.24Z"/><path class="cls-1" d="M146.75,54.87a1.57,1.57,0,0,1,1.37.6,2.26,2.26,0,0,1,.47,1.16A7.84,7.84,0,0,1,147.48,60a106,106,0,0,0-5.84,14.86q-1.75,5.94-3,12.18c-.36,1.84-1.07,2.8-2.14,2.88a1.72,1.72,0,0,1-1.57-.74,2.49,2.49,0,0,1-.63-1.47c-.09-1.08.64-4.76,2.16-11a78.91,78.91,0,0,1,6.37-16.58,28.79,28.79,0,0,1,2.24-4A2.35,2.35,0,0,1,146.75,54.87Zm7.37-20.73c1.41-.11,2.18.66,2.31,2.32a8.76,8.76,0,0,1-1.68,5.18q-1.77,2.8-3.6,3a1.74,1.74,0,0,1-1.51-.65,2.6,2.6,0,0,1-.7-1.68q-.21-2.59,2.06-5.71C152.11,35,153.15,34.21,154.12,34.14Z"/><path class="cls-1" d="M164,52.39q3.72-.3,4.06,4.19a14.25,14.25,0,0,1-2,8.15c-1.23,2.12-2.35,3.23-3.39,3.31-.87.06-1.36-.48-1.45-1.63a2.53,2.53,0,0,1,.27-1.49,14.31,14.31,0,0,1,1-1.33A11.82,11.82,0,0,0,164,60.7a5.1,5.1,0,0,0,.46-2,.76.76,0,0,0-.92-.8c-.66,0-1.61.72-2.86,2A31.9,31.9,0,0,0,155,69.34q-2.81,6.63-2.51,10.3a3.75,3.75,0,0,0,.77,2.06,2.74,2.74,0,0,0,2.51,1.22c2-.16,4.19-1.74,6.67-4.76a50.67,50.67,0,0,0,5.21-7.69c.71-1.39,1.37-2.11,2-2.16a1.18,1.18,0,0,1,1,.47,1.89,1.89,0,0,1,.46,1q.17,2-3.85,8.12Q160.83,87.58,155.05,88a6,6,0,0,1-5.53-2.45,9.3,9.3,0,0,1-1.7-4.87q-.44-5.61,3-13.33A40,40,0,0,1,159,55.28C160.85,53.47,162.54,52.5,164,52.39Z"/><path class="cls-1" d="M190.43,49a93.1,93.1,0,0,0-4.68,12.65q-3,9.9-2.59,14.65a3.58,3.58,0,0,0,.65,2,1.68,1.68,0,0,0,1.53.58q2.35-.18,5.29-5.52a63.56,63.56,0,0,0,3.27-6.56c.5-1.23,1.1-1.87,1.79-1.93a1.34,1.34,0,0,1,1.07.41,1.58,1.58,0,0,1,.45.94q.15,2-3.86,9.27-4.8,8.74-9.31,9.09a4.65,4.65,0,0,1-4.19-2.23,8.92,8.92,0,0,1-1.35-4.51,44.41,44.41,0,0,1,2.11-15.49q.63-2.22,3.6-10.77a7.14,7.14,0,0,1-1.9.53,2.87,2.87,0,0,1-1.78-.41,2.29,2.29,0,0,1-1.18-1.81,2.44,2.44,0,0,1,1.2-2.26,18.68,18.68,0,0,1,3.42-1,22.64,22.64,0,0,0,3.21-1.29,98.74,98.74,0,0,1,4.63-9.65q1.81-3.41,2.54-4.44c.68-.95,1.3-1.46,1.87-1.5a1.69,1.69,0,0,1,1.28.66,2.27,2.27,0,0,1,.67,1.36q.11,1.41-2.2,5.77c-1,1.89-1.76,3.42-2.24,4.58A29.25,29.25,0,0,1,201.07,40c1.72-.13,2.65.63,2.78,2.29a2.06,2.06,0,0,1-.75,1.9,6.48,6.48,0,0,1-2.4.73q-.81,0-6.93,2.61C192.64,48,191.53,48.51,190.43,49Z"/><path class="cls-1" d="M211.9,74a55.77,55.77,0,0,1-3.17,5.46q-2.44,3.68-5.13,3.88a3.91,3.91,0,0,1-3.75-2.1,8.32,8.32,0,0,1-1.21-3.93q-.54-7,3.92-16.39a27.82,27.82,0,0,1,4.25-6.79c1.12-1.29,2.08-2,2.86-2a1.66,1.66,0,0,1,1.28.55,2,2,0,0,1,.56,1.15c.05.69-.44,1.85-1.48,3.49a56.58,56.58,0,0,0-5.15,10.29C203.58,71.25,203,74,203.17,76a1.92,1.92,0,0,0,.39,1.14,1,1,0,0,0,.9.34q2.4-.19,6.06-8.41a54.18,54.18,0,0,0,3.1-9.37,19.59,19.59,0,0,1,1.83-5c.78-1.32,1.59-2,2.44-2.09a1.66,1.66,0,0,1,1.32.6,2.63,2.63,0,0,1,.74,1.63q.15,1.95-2.56,9a19.2,19.2,0,0,0-1.59,8,10.2,10.2,0,0,0,2,5.6,10.4,10.4,0,0,0,2.74,1.86,2.52,2.52,0,0,1,1.21,2.18,2.27,2.27,0,0,1-.59,1.74,2.46,2.46,0,0,1-1.71.83A5.62,5.62,0,0,1,215,82.28a10.2,10.2,0,0,1-2.65-5.45Q212.21,76.35,211.9,74Z"/><path class="cls-1" d="M231.59,62.94A99.88,99.88,0,0,1,241.34,51a44.32,44.32,0,0,1,4.33-4,4.24,4.24,0,0,1,1.48-.93c.47,0,1,.32,1.5,1.07a2.23,2.23,0,0,1,.52,1.16c.05.65-.48,1.58-1.58,2.78-3,3.17-4.39,5.49-4.28,7a1.1,1.1,0,0,0,1.32,1.15c1.35-.11,3.56-1.57,6.65-4.38a2.56,2.56,0,0,1,1.36-.76,1.07,1.07,0,0,1,.79.37,1.62,1.62,0,0,1,.5,1c.08,1.08-1.1,2.84-3.56,5.27q-3.85,3.9-7.57,4.18a4.59,4.59,0,0,1-2.84-.7,3.08,3.08,0,0,1-1.29-2.62,6.36,6.36,0,0,1,.75-3.15q-3.48,3.3-7.93,11.05a78.12,78.12,0,0,0-4.91,11.63c-.59,1.71-1.42,2.61-2.48,2.69s-1.79-.49-1.89-1.76.56-4.57,2-10q3.12-12.19,7-19.08,2.42-4.26,4.24-4.4a1.76,1.76,0,0,1,1.88,1.65,4.79,4.79,0,0,1-.76,2.34l-2.21,3.81A30.21,30.21,0,0,0,231.59,62.94Z"/><path class="cls-1" d="M256.69,68.43l.07,1a3.92,3.92,0,0,0,.68,2,4.13,4.13,0,0,0,4,1.7q5.87-.47,12.76-11.43c.82-1.26,1.54-1.91,2.17-2a1.17,1.17,0,0,1,1,.52,1.52,1.52,0,0,1,.35.79c.11,1.4-1.21,3.9-4,7.48a34.72,34.72,0,0,1-7,7,14.21,14.21,0,0,1-7.23,3.06,6.44,6.44,0,0,1-5.76-2.37A9.18,9.18,0,0,1,252,71q-.71-9.14,6.08-18.46,5.51-7.6,10-8a3.22,3.22,0,0,1,2.28.69,3.86,3.86,0,0,1,1.45,2.87A15.44,15.44,0,0,1,270,55.39,25.15,25.15,0,0,1,256.69,68.43Zm.7-4.29a17.87,17.87,0,0,0,4.94-3.32,23.06,23.06,0,0,0,4.7-7,5.09,5.09,0,0,0,.53-2.38c-.06-.72-.39-1.06-1-1-.82.06-1.92.85-3.31,2.37A28,28,0,0,0,257.39,64.14Z"/><path class="cls-1" d="M299,39.49a6.82,6.82,0,0,1,4.46.85,4.41,4.41,0,0,1,1.73,3.51,10.63,10.63,0,0,1-1.58,6.31,13.78,13.78,0,0,1-5.57,5,9.45,9.45,0,0,1-3.54,1.2,1.75,1.75,0,0,1-2.13-1.84,2.28,2.28,0,0,1,1-2.14,29.49,29.49,0,0,1,3.13-1.17,6.92,6.92,0,0,0,3.05-2.14,3.72,3.72,0,0,0,1.05-2.8,2.24,2.24,0,0,0-.69-1.63,2.35,2.35,0,0,0-1.73-.41c-1.82.14-3.76,1.15-5.82,3-2.39,2.11-3.48,4.47-3.27,7.1q.21,2.8,3,6.83c2.09,2.92,3.21,5.44,3.38,7.56a8.77,8.77,0,0,1-3.08,7.74,8.31,8.31,0,0,1-5,2.07,7.63,7.63,0,0,1-7.15-3.19,11.62,11.62,0,0,1-2.13-6.14A12.68,12.68,0,0,1,279.43,62c.72-1.32,1.52-2,2.39-2.09s1.21.27,1.26,1a3.36,3.36,0,0,1-.32,1.33,12.91,12.91,0,0,0-.66,5.54,6.55,6.55,0,0,0,2,4.36,4.43,4.43,0,0,0,3.46,1.36,3.37,3.37,0,0,0,2.75-1.63,5,5,0,0,0,.61-3.09c-.11-1.51-1-3.42-2.71-5.71q-3.48-4.74-3.8-8.78-.42-5.4,4.37-10A16.67,16.67,0,0,1,299,39.49Z"/><path class="cls-1" d="M308.81,70.84a2.07,2.07,0,0,1,1.82,1,3.18,3.18,0,0,1,.61,1.75,13.47,13.47,0,0,1-.81,5.44q-1,3.06-3.1,3.23c-1.44.11-2.23-.77-2.38-2.64A12.43,12.43,0,0,1,306,73.73C306.78,71.89,307.71,70.93,308.81,70.84Z"/><path id="logo" class="cls-1" d="M95.19,81.7a1.12,1.12,0,0,0-.15-.14,2.06,2.06,0,0,0-.4-.26,1.66,1.66,0,0,0-.91-.13,2.1,2.1,0,0,0-.64.15l-.06,0,0,0-.1.06-.09.06-.69.37a4.53,4.53,0,0,1-.67.17c-.14,0-.28,0-.72.07s-.64.06-.83.06a10.18,10.18,0,0,1-1.35,0,11.3,11.3,0,0,1-1.62-.29,13.6,13.6,0,0,1-3.86-1.57,11.15,11.15,0,0,1-4.25-6.2,14.8,14.8,0,0,1-.75-4.57c0-13.65,0-20.47.06-27.07.19-11.12-4.42-25.41-15-33.9A39.5,39.5,0,0,0,39,0a40,40,0,0,0-25.6,9.77C.28,21.39.18,37.57.21,40,.14,43.91-.1,57.77.05,69.87a35,35,0,0,0,.77,7.45A37.76,37.76,0,0,0,6.2,89.83c10.91,16.89,36.26,17.3,41.14,17.3,4.61,0,11.28.35,19.52-2.17A62.35,62.35,0,0,0,94.53,85.37l.26-.36c.09-.12.16-.24.23-.34s.12-.22.19-.37a4.5,4.5,0,0,0,.18-.62A3.05,3.05,0,0,0,95.19,81.7ZM19.79,56.64c-4.76,0-8.62-6.09-8.62-13.6s3.86-13.6,8.62-13.6,8.62,6.09,8.62,13.6S24.55,56.64,19.79,56.64Zm28,0c-4.76,0-8.62-6.09-8.62-13.6s3.86-13.6,8.62-13.6,8.62,6.09,8.62,13.6S52.53,56.64,47.77,56.64Z"/></g></g></svg>